<svg width="447" height="100" viewBox="0 0 447 100" fill="none" xmlns="http://www.w3.org/2000/svg">
<path d="M440.238 74.1935C436.207 74.1935 433.01 73.1455 430.645 71.0497C428.334 68.9002 427.179 65.4877 427.179 60.8124V34.534L427.018 34.0504L429.194 24.7804H437.739V59.1197C437.739 60.8393 438.142 62.1022 438.948 62.9083C439.808 63.6606 440.882 64.0368 442.172 64.0368C443.032 64.0368 443.811 63.983 444.51 63.8756C445.208 63.7143 445.826 63.5531 446.364 63.3919V73.2262C445.504 73.5486 444.59 73.7904 443.623 73.9516C442.656 74.1129 441.527 74.1935 440.238 74.1935ZM421.053 43.804V34.0504H446.364V43.804H421.053Z" fill="#300E45"/>
<path d="M379.311 73.4668V22.1849L389.87 18.5723V73.4668H379.311ZM404.702 73.4668V49.526C404.702 47.1078 404.219 45.4956 403.251 44.6895C402.338 43.8834 401.155 43.4804 399.705 43.4804C398.361 43.4804 396.991 43.7491 395.593 44.2865C394.196 44.7701 392.88 45.4956 391.644 46.4629C390.461 47.3765 389.44 48.4244 388.581 49.6066L386.001 41.4652C387.398 39.853 388.984 38.4289 390.757 37.1929C392.584 35.9569 394.519 34.9896 396.561 34.291C398.603 33.5387 400.752 33.1625 403.009 33.1625C405.696 33.1625 407.846 33.6193 409.458 34.5328C411.124 35.4464 412.36 36.6824 413.166 38.2408C414.026 39.7993 414.59 41.5726 414.859 43.561C415.128 45.4956 415.262 47.5108 415.262 49.6066V73.4668H404.702Z" fill="#300E45"/>
<path d="M350.439 89.5898C348.29 89.5898 346.14 89.2673 343.991 88.6225C341.895 87.9776 339.96 86.9297 338.187 85.4787C336.414 84.0815 334.909 82.1738 333.673 79.7555L333.028 78.4658L340.847 74.4354C342.19 76.5849 343.588 78.1433 345.039 79.1106C346.49 80.1317 348.317 80.6422 350.52 80.6422C353.261 80.6422 355.464 79.7824 357.13 78.0627C358.85 76.3431 359.709 73.7099 359.709 70.1631V60.2482H360.435V43.3204H359.709L362.289 34.0504H370.269V68.0673C370.269 72.6888 369.436 76.6118 367.77 79.8361C366.158 83.0605 363.874 85.4787 360.919 87.0909C357.963 88.7568 354.47 89.5898 350.439 89.5898ZM349.069 71.2916C345.522 71.2916 342.379 70.4855 339.638 68.8734C336.897 67.2612 334.748 65.031 333.189 62.1828C331.631 59.3347 330.852 56.0297 330.852 52.268C330.852 48.5063 331.604 45.2013 333.109 42.3531C334.667 39.4512 336.817 37.1942 339.557 35.582C342.298 33.9698 345.442 33.1638 348.989 33.1638C352.32 33.1638 355.249 33.9698 357.775 35.582C360.301 37.1404 362.262 39.3706 363.659 42.2725C365.056 45.1207 365.755 48.4525 365.755 52.268C365.755 56.1909 365.056 59.5765 363.659 62.4247C362.316 65.2191 360.381 67.3955 357.855 68.954C355.383 70.5124 352.455 71.2916 349.069 71.2916ZM350.923 62.0216C353.664 62.0216 355.894 61.1081 357.614 59.2809C359.333 57.4538 360.193 55.0893 360.193 52.1874C360.193 49.2855 359.333 46.921 357.614 45.0938C355.894 43.2667 353.664 42.3531 350.923 42.3531C348.182 42.3531 345.925 43.2667 344.152 45.0938C342.432 46.921 341.573 49.3123 341.573 52.268C341.573 55.1162 342.432 57.4538 344.152 59.2809C345.925 61.1081 348.182 62.0216 350.923 62.0216Z" fill="#300E45"/>
<path d="M323.753 73.468H313.193V34.0504H323.753V73.468ZM312.064 21.7979C312.064 19.8633 312.629 18.3049 313.757 17.1226C314.939 15.8866 316.498 15.2686 318.433 15.2686C320.367 15.2686 321.899 15.8866 323.027 17.1226C324.209 18.3049 324.801 19.8633 324.801 21.7979C324.801 23.625 324.209 25.1297 323.027 26.312C321.899 27.4943 320.367 28.0854 318.433 28.0854C316.498 28.0854 314.939 27.4943 313.757 26.312C312.629 25.1297 312.064 23.625 312.064 21.7979Z" fill="#300E45"/>
<path d="M290.918 74.5173C287.909 74.5173 285.034 73.8993 282.293 72.6633C279.606 71.4273 277.215 69.2778 275.119 66.2146L281.568 60.572C283.287 62.5066 284.927 63.9039 286.485 64.7637C288.097 65.5698 289.897 65.9728 291.886 65.9728C293.229 65.9728 294.304 65.6504 295.11 65.0055C295.916 64.3606 296.319 63.5546 296.319 62.5873C296.319 61.9424 296.104 61.3781 295.674 60.8945C295.244 60.3571 294.438 59.8466 293.256 59.3629C292.128 58.8793 290.462 58.3687 288.258 57.8314C284.174 56.7566 281.111 55.3056 279.069 53.4785C277.027 51.5976 276.006 48.9644 276.006 45.5788C276.006 43.2681 276.597 41.1722 277.779 39.2914C278.961 37.3568 280.654 35.8252 282.858 34.6967C285.115 33.5682 287.775 33.0039 290.838 33.0039C294.438 33.0039 297.501 33.7025 300.027 35.0997C302.607 36.4969 304.676 38.1897 306.234 40.1781L299.382 45.9013C298.361 44.8265 297.045 43.8861 295.433 43.08C293.82 42.2739 291.939 41.8708 289.79 41.8708C288.608 41.8708 287.56 42.1395 286.646 42.6769C285.733 43.2143 285.276 43.9935 285.276 45.0146C285.276 45.9819 285.759 46.788 286.727 47.4328C287.748 48.0777 289.682 48.7494 292.531 49.4481C297.367 50.5766 300.833 52.1081 302.929 54.0427C305.025 55.9774 306.073 58.5568 306.073 61.7812C306.073 64.3606 305.401 66.6177 304.058 68.5523C302.714 70.4332 300.887 71.911 298.576 72.9858C296.319 74.0068 293.767 74.5173 290.918 74.5173Z" fill="#300E45"/>
<path d="M251.564 74.2741C247.642 74.2741 244.202 73.4412 241.247 71.7753C238.291 70.0556 236.007 67.6642 234.395 64.6011C232.783 61.538 231.977 57.9375 231.977 53.7996C231.977 49.7154 232.783 46.1417 234.395 43.0786C236.007 39.9617 238.291 37.5435 241.247 35.8238C244.202 34.0505 247.642 33.1638 251.564 33.1638C255.541 33.1638 258.98 34.0505 261.882 35.8238C264.838 37.5972 267.122 40.0424 268.734 43.1592C270.346 46.2223 271.152 49.7423 271.152 53.7189C271.152 54.3101 271.125 54.9012 271.072 55.4923C271.072 56.0297 271.018 56.4865 270.911 56.8627H240.602V48.963H262.93L261.318 52.7516C261.318 49.4198 260.512 46.706 258.9 44.6102C257.341 42.5144 254.896 41.4664 251.564 41.4664C248.663 41.4664 246.325 42.38 244.552 44.2071C242.778 45.9805 241.891 48.3719 241.891 51.3813V55.6536C241.891 58.8242 242.778 61.323 244.552 63.1501C246.379 64.9235 248.851 65.8102 251.967 65.8102C254.708 65.8102 256.858 65.246 258.416 64.1175C259.975 62.9889 261.318 61.5917 262.447 59.9258L269.782 64.1175C268.009 67.3955 265.59 69.9213 262.527 71.6947C259.518 73.4143 255.864 74.2741 251.564 74.2741Z" fill="#300E45"/>
<path d="M215.21 34.0504L217.87 44.9326V73.4681H207.311V34.0504H215.21ZM215.694 50.3334L213.759 49.4467V41.3858L214.485 40.4991C215.076 39.5318 215.963 38.4839 217.145 37.3554C218.381 36.2269 219.778 35.2596 221.336 34.4535C222.949 33.5937 224.615 33.1638 226.334 33.1638C227.194 33.1638 227.973 33.2175 228.672 33.325C229.37 33.4325 229.908 33.6205 230.284 33.8892V43.4817H227.705C224.211 43.4817 221.525 44.0459 219.644 45.1744C217.763 46.2492 216.446 47.9689 215.694 50.3334Z" fill="#300E45"/>
<path d="M180.424 74.4354C176.34 74.4354 172.74 73.5755 169.623 71.8559C166.56 70.0825 164.168 67.6642 162.449 64.6011C160.729 61.4842 159.869 57.8837 159.869 53.7996C159.869 49.7154 160.729 46.1417 162.449 43.0786C164.168 39.9617 166.56 37.5435 169.623 35.8238C172.74 34.0505 176.34 33.1638 180.424 33.1638C184.508 33.1638 188.082 34.0505 191.145 35.8238C194.262 37.5435 196.68 39.9617 198.4 43.0786C200.12 46.1417 200.98 49.7154 200.98 53.7996C200.98 57.8837 200.12 61.4842 198.4 64.6011C196.68 67.6642 194.262 70.0825 191.145 71.8559C188.082 73.5755 184.508 74.4354 180.424 74.4354ZM180.424 64.1981C183.326 64.1981 185.691 63.2308 187.518 61.2961C189.345 59.3615 190.259 56.8627 190.259 53.7996C190.259 50.6827 189.345 48.1569 187.518 46.2223C185.691 44.2877 183.326 43.3204 180.424 43.3204C177.522 43.3204 175.158 44.2877 173.331 46.2223C171.557 48.1032 170.671 50.6021 170.671 53.7189C170.671 56.8358 171.557 59.3615 173.331 61.2961C175.158 63.2308 177.522 64.1981 180.424 64.1981Z" fill="#300E45"/>
<path d="M148.427 74.1935C144.397 74.1935 141.199 73.1455 138.835 71.0497C136.524 68.9002 135.368 65.4877 135.368 60.8124V34.534L135.207 34.0504L137.384 24.7804H145.928V59.1197C145.928 60.8393 146.331 62.1022 147.137 62.9083C147.997 63.6606 149.072 64.0368 150.362 64.0368C151.221 64.0368 152.001 63.983 152.699 63.8756C153.398 63.7143 154.016 63.5531 154.553 63.3919V73.2262C153.693 73.5486 152.78 73.7904 151.813 73.9516C150.845 74.1129 149.717 74.1935 148.427 74.1935ZM129.242 43.804V34.0504H154.553V43.804H129.242Z" fill="#300E45"/>
<path d="M106.765 74.7588C103.702 74.7588 100.8 74.302 98.0595 73.3884C95.3188 72.4748 92.8468 71.0508 90.6435 69.1162C88.4939 67.1816 86.6668 64.6558 85.1621 61.5389L93.5454 56.4606C95.2113 59.3088 97.1728 61.4315 99.4298 62.8287C101.687 64.2259 104.293 64.9245 107.249 64.9245C109.936 64.9245 111.978 64.3602 113.375 63.2317C114.772 62.0495 115.471 60.491 115.471 58.5564C115.471 57.3204 115.149 56.2725 114.504 55.4127C113.913 54.4991 112.838 53.6393 111.279 52.8332C109.721 52.0271 107.464 51.3017 104.508 50.6568C100.102 49.582 96.6354 48.2385 94.1097 46.6264C91.6377 45.0142 89.8911 43.1333 88.8701 40.9838C87.8491 38.7805 87.3385 36.3622 87.3385 33.729C87.3385 30.5584 88.0909 27.7908 89.5956 25.4263C91.154 23.008 93.3573 21.1003 96.2055 19.7031C99.0537 18.3059 102.439 17.6073 106.362 17.6073C110.876 17.6073 114.665 18.494 117.728 20.2674C120.791 21.987 123.29 24.3247 125.225 27.2803L116.841 33.0035C115.337 31.0689 113.617 29.6986 111.682 28.8925C109.801 28.0326 107.867 27.6027 105.879 27.6027C103.299 27.6027 101.311 28.1133 99.9135 29.1343C98.57 30.1553 97.8983 31.5794 97.8983 33.4066C97.8983 35.0187 98.57 36.4159 99.9135 37.5982C101.311 38.7267 103.998 39.7746 107.974 40.7419C112.488 41.8167 116.089 43.1333 118.776 44.6918C121.463 46.2502 123.371 48.1311 124.499 50.3344C125.681 52.5377 126.272 55.1977 126.272 58.3146C126.272 61.4315 125.466 64.2259 123.854 66.6979C122.296 69.1699 120.039 71.1314 117.083 72.5823C114.181 74.0333 110.742 74.7588 106.765 74.7588Z" fill="#300E45"/>
<path d="M43.5798 79.272C43.5798 82.7547 41.3686 85.8533 38.0751 86.9858L7.1358 97.6243C4.10966 98.6649 0.958984 96.4165 0.958984 93.2165L0.958986 21.3636C0.958986 17.8809 3.17017 14.7823 6.46364 13.6499L37.4029 3.0113C40.4291 1.97076 43.5798 4.21913 43.5798 7.41917V79.272Z" fill="url(#paint0_linear_25_76)" fill-opacity="0.54"/>
<path d="M51.3527 69.1115C51.3527 70.1065 50.7209 70.9918 49.7799 71.3154L18.0494 82.226C16.5363 82.7463 14.9609 81.6221 14.9609 80.0221V74.4509C14.9609 73.4559 15.5927 72.5706 16.5337 72.247L48.2643 61.3364C49.7774 60.8161 51.3527 61.9403 51.3527 63.5403V69.1115Z" fill="#300E45"/>
<path d="M43.58 40.5528C43.58 41.5479 42.9483 42.4332 42.0073 42.7567L18.0494 50.9957C16.5363 51.5161 14.9609 50.3919 14.9609 48.7918V43.2208C14.9609 42.2257 15.5927 41.3404 16.5336 41.0168L40.4915 32.7778C42.0046 32.2575 43.58 33.3817 43.58 34.9818V40.5528Z" fill="#300E45"/>
<path d="M61.7753 50.2039C61.7753 51.199 61.1436 52.0843 60.2026 52.4078L36.2448 60.6468C34.7317 61.1672 33.1562 60.043 33.1562 58.4429V52.8718C33.1562 51.8768 33.788 50.9915 34.7289 50.6679L58.6868 42.4289C60.1999 41.9086 61.7753 43.0328 61.7753 44.6328V50.2039Z" fill="#300E45"/>
<path d="M61.7726 17.8801C61.7726 18.8752 61.1409 19.7605 60.1999 20.0841L28.4693 30.9947C26.9562 31.515 25.3809 30.3908 25.3809 28.7908V23.2196C25.3809 22.2246 26.0126 21.3392 26.9536 21.0157L58.6842 10.105C60.1973 9.58478 61.7726 10.709 61.7726 12.309V17.8801Z" fill="#300E45"/>
<defs>
<linearGradient id="paint0_linear_25_76" x1="0.958984" y1="99.7483" x2="58.3932" y2="19.293" gradientUnits="userSpaceOnUse">
<stop stop-color="#0037FF"/>
<stop offset="0.5" stop-color="#FF16AA" stop-opacity="0.5"/>
<stop offset="1" stop-color="#48C5FF" stop-opacity="0"/>
</linearGradient>
</defs>
</svg>
