<svg width="32" height="32" viewBox="0 0 64 100" fill="none" xmlns="http://www.w3.org/2000/svg">
  <path d="M43.58 79.272C43.58 82.7547 41.3686 85.8533 38.0751 86.9858L7.1358 97.6243C4.10966 98.6649 0.958984 96.4165 0.958984 93.2165L0.958986 21.3636C0.958986 17.8809 3.17017 14.7823 6.46364 13.6499L37.4029 3.0113C40.4291 1.97076 43.5798 4.21913 43.5798 7.41917V79.272Z" fill="url(#favicon-gradient)" fill-opacity="0.54"/>
  <path d="M51.3527 69.1115C51.3527 70.1065 50.7209 70.9918 49.7799 71.3154L18.0494 82.226C16.5363 82.7463 14.9609 81.6221 14.9609 80.0221V74.4509C14.9609 73.4559 15.5927 72.5706 16.5337 72.247L48.2643 61.3364C49.7774 60.8161 51.3527 61.9403 51.3527 63.5403V69.1115Z" fill="#300E45"/>
  <path d="M43.58 40.5528C43.58 41.5479 42.9483 42.4332 42.0073 42.7567L18.0494 50.9957C16.5363 51.5161 14.9609 50.3919 14.9609 48.7918V43.2208C14.9609 42.2257 15.5927 41.3404 16.5336 41.0168L40.4915 32.7778C42.0046 32.2575 43.58 33.3817 43.58 34.9818V40.5528Z" fill="#300E45"/>
  <path d="M61.7753 50.2039C61.7753 51.199 61.1436 52.0843 60.2026 52.4078L36.2448 60.6468C34.7317 61.1672 33.1562 60.043 33.1562 58.4429V52.8718C33.1562 51.8768 33.788 50.9915 34.7289 50.6679L58.6868 42.4289C60.1999 41.9086 61.7753 43.0328 61.7753 44.6328V50.2039Z" fill="#300E45"/>
  <path d="M61.7726 17.8801C61.7726 18.8752 61.1409 19.7605 60.1999 20.0841L28.4693 30.9947C26.9562 31.515 25.3809 30.3908 25.3809 28.7908V23.2196C25.3809 22.2246 26.0126 21.3392 26.9536 21.0157L58.6842 10.105C60.1973 9.58478 61.7726 10.709 61.7726 12.309V17.8801Z" fill="#300E45"/>
  <defs>
    <linearGradient id="favicon-gradient" x1="0.958984" y1="99.7483" x2="58.3932" y2="19.293" gradientUnits="userSpaceOnUse">
      <stop stop-color="#0037FF"/>
      <stop offset="0.5" stop-color="#FF16AA" stop-opacity="0.5"/>
      <stop offset="1" stop-color="#48C5FF" stop-opacity="0"/>
    </linearGradient>
  </defs>
</svg>
